<?xml version="1.0" standalone="no"?>
<!DOCTYPE svg PUBLIC "-//W3C//DTD SVG 20010904//EN"
 "http://www.w3.org/TR/2001/REC-SVG-20010904/DTD/svg10.dtd">
<svg version="1.0" xmlns="http://www.w3.org/2000/svg"
 width="192.000000pt" height="192.000000pt" viewBox="0 0 192.000000 192.000000"
 preserveAspectRatio="xMidYMid meet">

<g transform="translate(0.000000,192.000000) scale(0.100000,-0.100000)"
fill="#000000" stroke="none">
<path d="M1108 1773 c10 -4 8 -11 -8 -28 -12 -13 -23 -37 -24 -54 -1 -16 -5
-33 -9 -38 -5 -4 -5 0 -1 10 21 56 -34 -25 -61 -89 -13 -32 -13 -34 6 -34 12
0 27 12 37 31 9 17 36 58 59 90 32 44 38 58 26 61 -13 3 -12 5 4 20 17 16 22
15 86 -23 38 -21 74 -39 80 -39 7 0 -26 23 -73 50 -47 27 -96 49 -110 49 -14
0 -19 -3 -12 -6z"/>
<path d="M965 1755 l-80 -13 73 5 c41 3 86 9 100 13 40 12 1 10 -93 -5z"/>
<path d="M843 1733 c9 -2 23 -2 30 0 6 3 -1 5 -18 5 -16 0 -22 -2 -12 -5z"/>
<path d="M660 1690 c-52 -21 -103 -41 -114 -44 -30 -8 -9 -25 52 -41 31 -9 84
-26 117 -38 33 -12 67 -22 76 -23 9 -1 42 -13 74 -28 46 -21 60 -24 68 -14 6
10 8 9 4 -3 -3 -9 0 -22 6 -28 8 -8 6 -11 -9 -11 -16 -1 -17 -2 -3 -10 8 -5
24 -7 35 -6 12 3 39 -15 74 -48 40 -37 46 -41 20 -12 -19 22 -46 50 -60 63
l-25 24 50 -7 c28 -3 75 -12 106 -20 31 -8 65 -14 75 -13 11 1 -21 11 -71 24
l-90 23 110 1 c61 1 174 4 253 8 l142 6 -26 -47 c-22 -39 -30 -47 -48 -42 -11
3 -52 8 -91 11 -38 3 -90 7 -115 10 -31 3 -39 1 -25 -5 11 -5 49 -9 85 -10 57
-1 111 -8 159 -21 8 -2 25 11 38 30 12 19 23 30 23 25 0 -5 -7 -20 -17 -33
-13 -19 -14 -28 -5 -42 7 -10 12 -27 12 -36 0 -15 2 -16 10 -3 7 10 10 -9 10
-64 0 -89 14 -96 15 -9 1 34 6 58 13 61 7 2 12 10 12 18 0 8 -6 11 -15 8 -18
-7 -20 17 -4 33 8 8 8 13 0 17 -6 4 -11 28 -11 54 0 42 1 44 15 26 13 -18 14
-18 8 4 -6 23 -45 56 -97 83 -16 7 -31 21 -33 29 -4 13 -123 86 -123 75 0 -2
26 -22 58 -44 31 -21 68 -50 81 -64 13 -14 29 -23 35 -21 7 3 18 -1 25 -9 17
-22 -39 -28 -308 -33 -129 -3 -238 -7 -243 -10 -11 -7 -10 3 2 27 6 11 7 19 2
19 -6 0 -13 -10 -16 -22 l-6 -23 -24 27 c-13 15 -26 25 -29 22 -2 -3 -27 26
-55 63 -28 37 -62 79 -77 93 l-27 25 24 6 c23 7 23 7 -2 7 -14 0 -68 -17 -120
-38z m100 6 c0 -8 5 -18 12 -22 7 -5 8 -3 3 7 -8 12 -6 12 8 0 18 -14 24 -36
7 -26 -16 10 -11 -1 7 -16 14 -12 16 -12 9 1 -4 8 3 2 16 -14 13 -16 38 -47
56 -69 36 -44 36 -56 0 -34 -12 8 -54 25 -93 38 -38 12 -89 31 -112 41 -24 10
-53 18 -65 19 -13 0 -32 4 -42 8 -19 7 -19 8 2 13 12 4 20 2 16 -3 -3 -5 2 -9
10 -9 8 0 19 6 23 14 9 16 100 63 126 65 9 1 17 -5 17 -13z"/>
<path d="M477 1572 c-15 -16 -24 -31 -21 -35 8 -7 -33 -65 -82 -117 -18 -19
-53 -66 -78 -105 -31 -47 -46 -63 -46 -50 l-1 20 -9 -20 c-4 -11 -16 -54 -26
-95 -9 -41 -30 -106 -46 -145 -22 -56 -24 -65 -8 -45 21 27 50 103 50 131 0
26 15 31 18 6 1 -12 6 -42 11 -67 9 -39 9 -36 4 25 -3 40 -2 67 3 63 5 -5 40
-38 78 -75 l70 -68 -55 61 c-30 33 -67 75 -83 92 l-28 32 40 69 c23 37 48 73
56 81 9 7 16 18 16 26 0 7 8 19 18 26 10 7 34 36 54 63 19 28 50 71 68 97 38
55 36 71 -3 30z"/>
<path d="M368 1502 c-37 -21 -71 -42 -75 -47 -9 -10 127 63 142 76 17 16 1 9
-67 -29z"/>
<path d="M890 1450 c-8 -5 -12 -12 -9 -15 4 -3 12 1 19 10 14 17 11 19 -10 5z"/>
<path d="M255 1398 c-3 -24 -9 -58 -12 -75 -3 -19 -1 -33 4 -33 6 0 13 32 16
72 7 81 2 102 -8 36z"/>
<path d="M1610 1436 c0 -11 30 -66 36 -66 2 0 -3 15 -12 33 -19 36 -24 44 -24
33z"/>
<path d="M950 1423 c0 -12 -77 -53 -85 -45 -2 3 3 11 13 19 15 13 15 13 -5 3
-12 -5 -25 -15 -29 -22 -5 -7 -3 -8 6 -3 9 6 11 4 6 -4 -5 -7 -14 -10 -21 -7
-7 2 -26 -9 -41 -25 -16 -17 -43 -37 -61 -46 -18 -8 -44 -26 -58 -39 -14 -13
-29 -24 -32 -24 -3 0 -31 -17 -62 -38 l-57 -38 15 -49 c9 -28 18 -52 21 -55 3
-3 12 -25 20 -50 7 -25 24 -64 37 -88 13 -24 21 -47 18 -52 -3 -4 14 -46 37
-91 23 -46 43 -78 45 -72 3 7 -7 29 -21 50 -35 52 -25 91 29 117 22 11 34 21
28 23 -7 3 -21 -1 -32 -7 -18 -9 -20 -8 -14 7 4 10 16 33 26 51 19 32 19 33 1
47 -18 13 -16 15 24 31 23 9 42 23 42 31 0 7 4 13 8 13 10 0 32 45 32 65 0 8
-7 15 -16 15 -14 0 -14 3 -4 15 7 8 18 15 24 14 34 -4 46 2 45 24 -1 18 -2 18
-6 4 -3 -11 -10 -16 -20 -13 -8 3 -23 1 -34 -4 -15 -8 -21 -7 -25 5 -3 8 -13
15 -21 15 -28 0 -3 18 31 22 28 3 33 1 24 -9 -8 -10 -6 -13 6 -13 17 0 24 10
29 45 1 11 11 35 20 54 10 20 13 37 8 40 -5 4 -3 15 5 26 12 16 17 17 23 6 6
-9 12 -4 20 20 6 18 9 35 6 37 -3 3 -5 1 -5 -5z m-390 -278 c-7 -9 -15 -13
-17 -11 -7 7 7 26 19 26 6 0 6 -6 -2 -15z m250 -32 c-1 -18 -30 -44 -41 -38
-8 6 -5 13 12 26 27 21 29 22 29 12z m-220 -13 c0 -5 -7 -10 -15 -10 -8 0 -15
5 -15 10 0 6 7 10 15 10 8 0 15 -4 15 -10z m177 -46 c-3 -3 -12 -4 -19 -1 -8
3 -5 6 6 6 11 1 17 -2 13 -5z m-87 -166 c0 -17 -23 -18 -35 -2 -24 32 -18 47
10 27 13 -10 25 -21 25 -25z"/>
<path d="M980 1423 c0 -4 5 -15 10 -23 8 -13 10 -13 10 2 0 9 -4 20 -10 23 -5
3 -10 3 -10 -2z"/>
<path d="M756 1390 c-43 -16 -83 -33 -90 -38 -6 -5 -51 -23 -100 -41 -90 -32
-146 -58 -96 -45 14 3 58 19 98 35 41 16 78 29 84 29 6 0 19 6 27 13 9 8 45
24 81 37 36 13 69 27 75 32 13 11 9 10 -79 -22z"/>
<path d="M1000 1361 c0 -6 4 -13 10 -16 6 -3 7 1 4 9 -7 18 -14 21 -14 7z"/>
<path d="M1502 1345 c0 -16 2 -22 5 -12 2 9 2 23 0 30 -3 6 -5 -1 -5 -18z"/>
<path d="M1660 1342 c6 -13 14 -21 18 -18 3 4 -2 14 -12 24 -18 16 -18 16 -6
-6z"/>
<path d="M1136 1308 c15 -20 30 -35 33 -32 3 2 -10 19 -28 37 l-34 32 29 -37z"/>
<path d="M911 1294 c0 -11 3 -14 6 -6 3 7 2 16 -1 19 -3 4 -6 -2 -5 -13z"/>
<path d="M1026 1290 c3 -14 10 -29 15 -34 14 -16 10 6 -7 34 l-15 25 7 -25z"/>
<path d="M1512 1275 c0 -16 2 -22 5 -12 2 9 2 23 0 30 -3 6 -5 -1 -5 -18z"/>
<path d="M1715 1251 c20 -41 75 -117 75 -106 0 8 -65 110 -83 130 -5 6 -2 -5
8 -24z"/>
<path d="M901 1263 c-1 -6 -4 -20 -7 -30 -5 -17 -5 -17 6 0 6 10 9 23 6 30 -3
9 -5 9 -5 0z"/>
<path d="M1183 1255 c0 -8 12 -25 26 -37 l26 -23 -25 28 c-14 16 -23 31 -22
34 2 2 2 7 0 9 -3 2 -5 -3 -5 -11z"/>
<path d="M332 1217 c-51 -23 -89 -43 -84 -45 5 -1 51 18 103 42 52 25 90 45
84 45 -5 0 -52 -19 -103 -42z"/>
<path d="M1051 1219 c-1 -8 6 -24 15 -35 15 -19 15 -19 6 1 -5 11 -12 27 -15
35 -5 13 -6 13 -6 -1z"/>
<path d="M1523 1195 c0 -22 2 -30 4 -17 2 12 2 30 0 40 -3 9 -5 -1 -4 -23z"/>
<path d="M1260 1165 c13 -14 26 -25 28 -25 3 0 -5 11 -18 25 -13 14 -26 25
-28 25 -3 0 5 -11 18 -25z"/>
<path d="M270 1161 c0 -14 30 -23 93 -27 44 -4 57 -1 57 9 0 8 -14 17 -31 21
-46 9 -119 7 -119 -3z"/>
<path d="M470 1150 c-13 -8 -13 -10 2 -10 9 0 20 5 23 10 8 13 -5 13 -25 0z"/>
<path d="M1315 1110 c10 -11 20 -20 23 -20 3 0 -3 9 -13 20 -10 11 -20 20 -23
20 -3 0 3 -9 13 -20z"/>
<path d="M1790 1121 c0 -6 4 -13 10 -16 6 -3 7 1 4 9 -7 18 -14 21 -14 7z"/>
<path d="M1536 1056 c2 -38 6 -71 8 -73 7 -8 5 85 -3 113 -6 20 -8 8 -5 -40z"/>
<path d="M841 1044 c0 -11 3 -14 6 -6 3 7 2 16 -1 19 -3 4 -6 -2 -5 -13z"/>
<path d="M1805 1033 c-53 -28 -155 -105 -150 -112 6 -11 -73 -54 -85 -46 -5 3
-6 13 -3 21 3 9 0 20 -8 25 -11 6 -11 11 -1 21 16 16 15 25 -2 25 -11 0 -14
-13 -11 -54 2 -30 -1 -53 -6 -53 -6 0 -7 -4 -4 -10 3 -6 -1 -7 -10 -3 -12 4
-13 8 -4 13 16 11 -12 25 -79 39 -29 6 -66 18 -82 26 -33 17 -65 21 -40 5 12
-8 12 -10 -5 -10 -11 0 -27 5 -35 10 -12 8 -12 10 5 11 20 0 -19 18 -75 33
l-25 7 25 -15 c24 -14 23 -14 -20 -8 -104 14 -98 17 -254 -122 -80 -72 -144
-132 -141 -134 2 -2 61 48 131 112 70 64 130 116 134 116 5 0 6 -9 3 -19 -5
-18 1 -19 89 -18 72 2 101 -2 127 -16 32 -16 36 -16 52 -1 10 9 16 21 13 25
-7 11 27 11 44 0 11 -6 10 -10 -4 -15 -15 -6 -16 -9 -5 -15 8 -5 14 -23 15
-40 1 -36 10 -38 82 -16 58 17 74 19 74 5 0 -5 -6 -10 -13 -10 -8 0 -21 -8
-30 -18 -19 -20 -23 -37 -7 -27 16 10 12 -11 -5 -25 -8 -7 -15 -18 -15 -25 0
-7 -9 -24 -20 -38 -22 -27 -28 -63 -8 -51 7 4 8 3 4 -5 -4 -6 -12 -8 -18 -5
-8 5 -9 1 -5 -10 4 -10 3 -15 -3 -11 -5 3 -28 -31 -51 -77 -23 -45 -49 -88
-58 -95 -9 -6 -16 -16 -16 -21 0 -5 -11 -19 -25 -30 -14 -11 -25 -28 -25 -38
0 -10 -8 -20 -18 -22 -18 -4 -18 -6 -1 73 4 16 2 16 -9 -4 -16 -27 -29 -16
-21 17 5 17 10 19 30 12 15 -6 24 -6 24 0 0 6 -5 10 -12 10 -6 0 1 13 17 30
16 16 24 30 18 30 -6 0 -20 -12 -31 -27 -18 -25 -73 -40 -69 -19 2 12 -126 78
-216 111 -37 14 -81 32 -98 40 -17 9 -40 13 -52 10 -17 -5 -19 -4 -7 4 12 8
10 11 -10 19 -58 21 -56 20 -41 21 8 1 -5 14 -30 29 -41 27 -104 96 -104 116
0 4 -25 29 -55 54 -43 35 -47 37 -17 8 20 -20 37 -40 37 -45 0 -4 15 -24 33
-43 54 -58 87 -98 87 -103 0 -3 -20 -5 -44 -5 -24 0 -46 -5 -48 -11 -4 -11
-23 -11 -170 -3 -76 4 -98 9 -98 20 0 19 -37 18 -48 -2 -6 -11 -11 -13 -16 -5
-4 6 -11 11 -16 11 -10 0 2 -48 19 -77 9 -16 10 -15 11 10 0 15 5 27 10 27 6
0 10 -7 10 -15 0 -8 7 -15 16 -15 19 0 8 -19 -16 -28 -18 -7 -18 -9 3 -56 14
-33 17 -51 10 -53 -7 -3 -3 -18 11 -43 23 -41 121 -114 139 -103 6 3 7 1 3 -5
-9 -16 72 -65 107 -65 16 0 23 -4 16 -8 -17 -10 25 -30 48 -23 13 4 14 3 5 -4
-18 -12 50 -54 76 -46 13 5 14 4 3 -4 -11 -8 -5 -15 29 -32 39 -20 49 -21 94
-11 28 6 69 13 91 16 165 23 305 58 305 77 0 9 102 58 120 58 10 0 10 -3 0
-17 -7 -10 7 2 31 27 25 27 80 64 129 90 47 24 91 49 97 56 7 7 17 14 22 16 5
1 12 26 15 53 4 35 3 44 -3 30 -5 -11 -10 -14 -10 -6 -1 7 -7 11 -16 7 -9 -3
-15 0 -15 10 0 8 5 12 11 8 7 -4 9 2 7 17 -2 13 -8 23 -14 22 -5 -1 -10 15
-10 35 0 20 -7 71 -16 112 -10 41 -15 76 -13 78 2 3 29 -17 59 -43 l56 -47 11
28 c7 16 20 49 31 72 10 24 17 49 15 55 -1 5 -11 -11 -21 -36 -12 -32 -22 -44
-32 -40 -17 6 -18 35 -2 51 10 10 10 15 0 21 -17 10 -12 53 6 57 7 1 8 0 2 -3
-5 -2 -10 -9 -10 -15 0 -6 6 -6 15 2 8 7 12 16 9 21 -3 6 11 26 30 47 20 20
36 41 36 47 0 5 5 3 11 -5 9 -13 10 -13 6 0 -2 8 3 20 12 27 22 17 12 15 -24
-4z m-320 -163 c3 -5 2 -10 -4 -10 -5 0 -13 5 -16 10 -3 6 -2 10 4 10 5 0 13
-4 16 -10z m211 -114 c10 -8 15 -18 11 -22 -4 -4 -17 2 -29 14 -25 25 -13 30
18 8z m-979 -124 c7 -5 11 -26 9 -55 -2 -26 0 -47 5 -47 5 0 9 7 9 15 0 19 24
19 39 1 10 -12 8 -17 -11 -27 -13 -7 -28 -12 -34 -11 -18 4 -25 -33 -31 -160
-3 -68 -10 -118 -16 -118 -5 0 -24 9 -42 20 -48 30 -176 81 -186 74 -5 -3 -9
-1 -9 5 0 5 -8 12 -18 15 -33 11 -61 45 -72 89 -6 23 -18 56 -28 74 -9 18 -13
35 -10 39 12 11 58 -6 58 -21 0 -19 13 -19 49 0 19 9 38 11 57 6 l29 -8 -50
-22 c-46 -20 -64 -36 -65 -54 0 -4 9 -3 19 3 24 12 54 13 46 1 -3 -5 -18 -12
-34 -16 -31 -7 -58 -31 -48 -42 6 -6 57 26 162 102 28 20 62 44 77 53 35 22
36 35 2 21 -44 -16 -38 -3 11 25 25 15 45 31 45 36 0 12 20 13 37 2z m153 -63
c0 -14 -16 -11 -29 5 -10 12 -8 13 8 9 12 -3 21 -9 21 -14z m110 -39 c8 -5 11
-10 5 -10 -5 0 -17 5 -25 10 -8 5 -10 10 -5 10 6 0 17 -5 25 -10z m62 -31 c29
-18 30 -20 8 -15 -14 3 -31 6 -37 6 -7 0 -13 7 -13 15 0 19 3 19 42 -6z m-209
-15 c-5 -14 -3 -15 15 -5 26 14 32 14 32 0 0 -6 10 -19 22 -28 26 -22 18 -38
-25 -49 -18 -5 -32 -15 -32 -23 0 -8 -9 -23 -19 -33 -13 -13 -16 -21 -8 -24
17 -5 15 -23 -5 -38 -19 -15 -9 -14 82 2 l30 5 -24 -21 c-13 -11 -34 -20 -48
-20 -15 0 -23 -5 -20 -12 4 -15 56 -18 105 -7 17 4 34 3 37 -1 3 -5 19 -11 35
-15 16 -4 33 -11 36 -17 9 -13 -85 -3 -99 11 -5 5 -21 5 -36 1 -15 -4 -63 -4
-107 1 -43 4 -82 8 -86 8 -8 1 -2 183 8 240 4 24 8 31 14 21 7 -11 12 -11 32
3 31 22 69 22 61 1z m327 -40 c20 -20 1 -17 -40 7 l-35 20 30 -6 c17 -4 37
-13 45 -21z m202 -6 c-7 -7 -12 -8 -12 -2 0 14 12 26 19 19 2 -3 -1 -11 -7
-17z m298 13 c0 -5 -7 -12 -16 -15 -14 -5 -15 -4 -4 9 14 17 20 19 20 6z
m-756 -66 c-10 -8 -26 -14 -34 -14 -9 0 -4 6 10 14 33 19 49 19 24 0z m85 -46
c-9 -5 -15 -4 -18 2 -2 6 3 15 10 20 9 5 15 4 18 -2 2 -6 -3 -15 -10 -20z
m-79 -14 c-7 -8 -19 -15 -27 -15 -13 0 -13 3 -3 15 7 8 19 15 27 15 13 0 13
-3 3 -15z m290 -72 c0 -21 -20 -55 -20 -35 0 6 -8 12 -17 12 -17 1 -17 1 -1
14 10 7 15 16 11 19 -3 4 1 7 10 7 10 0 17 -8 17 -17z m40 10 c0 -5 -7 -17
-15 -27 -14 -19 -15 -19 -15 7 0 17 5 27 15 27 8 0 15 -3 15 -7z m-148 -75
c-9 -9 -15 -9 -24 0 -9 9 -7 12 12 12 19 0 21 -3 12 -12z m-235 -4 c-3 -3 -12
-4 -19 -1 -8 3 -5 6 6 6 11 1 17 -2 13 -5z"/>
<path d="M771 369 c-13 -5 -22 -12 -19 -15 8 -8 58 7 58 17 0 11 -8 11 -39 -2z"/>
<path d="M775 320 c-3 -5 -2 -10 4 -10 5 0 13 5 16 10 3 6 2 10 -4 10 -5 0
-13 -4 -16 -10z"/>
<path d="M770 259 c0 -5 5 -7 10 -4 6 3 10 8 10 11 0 2 -4 4 -10 4 -5 0 -10
-5 -10 -11z"/>
<path d="M1410 1026 c0 -2 8 -10 18 -17 15 -13 16 -12 3 4 -13 16 -21 21 -21
13z"/>
<path d="M1561 994 c0 -11 3 -14 6 -6 3 7 2 16 -1 19 -3 4 -6 -2 -5 -13z"/>
<path d="M1450 996 c0 -2 8 -10 18 -17 15 -13 16 -12 3 4 -13 16 -21 21 -21
13z"/>
<path d="M244 964 c3 -9 6 -31 6 -50 0 -19 4 -34 9 -34 5 0 8 8 6 18 -2 9 -4
32 -4 50 -1 17 -6 32 -12 32 -6 0 -8 -7 -5 -16z"/>
<path d="M760 971 c0 -6 5 -13 10 -16 6 -3 10 1 10 9 0 9 -4 16 -10 16 -5 0
-10 -4 -10 -9z"/>
<path d="M816 965 c-9 -26 -7 -32 5 -12 6 10 9 21 6 23 -2 3 -7 -2 -11 -11z"/>
<path d="M435 950 c10 -11 20 -20 23 -20 3 0 -3 9 -13 20 -10 11 -20 20 -23
20 -3 0 3 -9 13 -20z"/>
<path d="M117 909 c-23 -61 -21 -74 3 -20 12 24 19 49 17 54 -2 6 -11 -10 -20
-34z"/>
<path d="M480 916 c0 -2 8 -10 18 -17 15 -13 16 -12 3 4 -13 16 -21 21 -21 13z"/>
<path d="M783 870 c-6 -17 -8 -30 -3 -30 8 0 24 50 18 56 -2 2 -9 -10 -15 -26z"/>
<path d="M1330 859 c0 -5 5 -7 10 -4 6 3 10 8 10 11 0 2 -4 4 -10 4 -5 0 -10
-5 -10 -11z"/>
<path d="M150 849 c0 -5 5 -7 10 -4 6 3 10 8 10 11 0 2 -4 4 -10 4 -5 0 -10
-5 -10 -11z"/>
<path d="M110 830 c0 -5 5 -10 10 -10 6 0 10 5 10 10 0 6 -4 10 -10 10 -5 0
-10 -4 -10 -10z"/>
<path d="M1220 830 c-12 -8 -11 -10 7 -10 12 0 25 5 28 10 8 13 -15 13 -35 0z"/>
<path d="M150 814 c0 -8 5 -12 10 -9 6 3 10 10 10 16 0 5 -4 9 -10 9 -5 0 -10
-7 -10 -16z"/>
<path d="M261 784 c0 -11 3 -14 6 -6 3 7 2 16 -1 19 -3 4 -6 -2 -5 -13z"/>
<path d="M1340 780 c-21 -7 -21 -8 -5 -9 11 0 27 4 35 9 18 11 5 11 -30 0z"/>
<path d="M150 767 c0 -9 72 -137 95 -170 8 -12 15 -19 15 -16 0 8 -32 73 -39
79 -3 3 -17 25 -30 50 -25 47 -41 69 -41 57z"/>
<path d="M1248 753 c7 -3 16 -2 19 1 4 3 -2 6 -13 5 -11 0 -14 -3 -6 -6z"/>
<path d="M260 721 c0 -42 14 -46 17 -5 2 19 -2 34 -7 34 -6 0 -10 -13 -10 -29z"/>
<path d="M749 708 c-3 -22 -1 -34 4 -29 5 5 7 21 5 37 -3 27 -4 26 -9 -8z"/>
<path d="M1446 723 c-6 -14 -5 -15 5 -6 7 7 10 15 7 18 -3 3 -9 -2 -12 -12z"/>
<path d="M1098 723 c7 -3 16 -2 19 1 4 3 -2 6 -13 5 -11 0 -14 -3 -6 -6z"/>
<path d="M1058 713 c7 -3 16 -2 19 1 4 3 -2 6 -13 5 -11 0 -14 -3 -6 -6z"/>
<path d="M918 683 c7 -3 16 -2 19 1 4 3 -2 6 -13 5 -11 0 -14 -3 -6 -6z"/>
<path d="M840 670 c-20 -6 -21 -8 -5 -8 11 0 31 4 45 8 20 6 21 8 5 8 -11 0
-31 -4 -45 -8z"/>
<path d="M418 653 c6 -2 18 -2 25 0 6 3 1 5 -13 5 -14 0 -19 -2 -12 -5z"/>
<path d="M515 650 c27 -12 43 -12 25 0 -8 5 -22 9 -30 9 -10 0 -8 -3 5 -9z"/>
<path d="M588 653 c7 -3 16 -2 19 1 4 3 -2 6 -13 5 -11 0 -14 -3 -6 -6z"/>
<path d="M788 653 c7 -3 16 -2 19 1 4 3 -2 6 -13 5 -11 0 -14 -3 -6 -6z"/>
<path d="M1378 623 c-21 -25 -80 -113 -75 -113 8 0 99 121 95 126 -3 2 -12 -4
-20 -13z"/>
<path d="M1691 633 c-1 -6 -4 -20 -7 -30 -5 -17 -5 -17 6 0 6 10 9 23 6 30 -3
9 -5 9 -5 0z"/>
<path d="M306 477 c3 -10 9 -15 12 -12 3 3 0 11 -7 18 -10 9 -11 8 -5 -6z"/>
<path d="M1295 215 c-16 -8 -23 -14 -15 -14 8 0 29 6 45 14 17 7 23 13 15 13
-8 0 -28 -6 -45 -13z"/>
</g>
</svg>
